<svg xmlns="http://www.w3.org/2000/svg" aria-hidden="true" style="position:absolute;width:0;height:0;overflow:hidden"><defs><symbol id="icon-icon" viewBox="0 0 23 32"><path d="M0 7.347a4.9 4.9 0 0 0 4.081 4.824v7.421a.815.815 0 0 0 .816.816H17.96a.815.815 0 0 0 .816-.816v-7.421a4.901 4.901 0 0 0 4.08-4.824 4.903 4.903 0 0 0-4.898-4.898h-1.847C15.077.971 13.365 0 11.428 0S7.779.971 6.745 2.449H4.897c-1.299.002-2.543.518-3.462 1.436S0 6.048-.001 7.347zm5.714 10.614h11.43v.815H5.714v-.815zM4.898 4.082h1.056c-.159.53-.24 1.08-.241 1.633a.815.815 0 1 0 1.632 0c0-2.251 1.831-4.082 4.082-4.082s4.082 1.831 4.082 4.082a.815.815 0 1 0 1.632 0c0-.567-.086-1.114-.241-1.633h1.056a3.27 3.27 0 0 1 3.266 3.266 3.268 3.268 0 0 1-3.259 3.265l-.005-.001a.82.82 0 0 0-.818.818l.002.008v4.891H5.712v-4.895l.001-.004a.82.82 0 0 0-.504-.755.82.82 0 0 0-.313-.062l-.005.001a3.266 3.266 0 0 1 .007-6.531zm15.508 19.593H2.45a.815.815 0 1 0 0 1.632h17.956a.815.815 0 1 0 0-1.632zm0 2.449H2.45a.815.815 0 1 0 0 1.632h17.956a.815.815 0 1 0 0-1.632zm-4.081 2.471H6.532a.817.817 0 0 0 0 1.632h9.793a.817.817 0 0 0 0-1.632z"/></symbol></defs></svg>